<?xml version="1.0" encoding="utf-8"?>
<!-- Generator: Adobe Illustrator 23.0.5, SVG Export Plug-In . SVG Version: 6.00 Build 0)  -->
<svg version="1.1" id="Layer_1" xmlns="http://www.w3.org/2000/svg" xmlns:xlink="http://www.w3.org/1999/xlink" x="0px" y="0px"
	 viewBox="0 0 1921.4 577" style="enable-background:new 0 0 1921.4 577;" xml:space="preserve">
<style type="text/css">
	.st0{fill:#FFFFFF;}
	.st1{fill:url(#path369_1_);}
	.st2{opacity:0.5;fill:url(#SVGID_1_);}
	.st3{fill:url(#SVGID_2_);}
	.st4{opacity:0.4;fill:url(#SVGID_3_);}
	.st5{opacity:0.3;fill:url(#SVGID_4_);}
	.st6{opacity:0.5;fill:url(#SVGID_5_);}
	.st7{opacity:0.4;fill:#D3D3D3;}
</style>
<g>
	<g id="Layer_1-2">
		<g id="Layer_2-2">
			<g id="Layer_1-2-2">
				<g id="SVGID">
					<g id="g473">
						<path id="path471" class="st0" d="M0.8,2.2v323.4c72.4,80.9,403.2-55.9,297.7,52.5c-81.8,84-12.7,206.7,216.1,116.9
							c211.8-83.2,402.8,14.6,443.5,82h26.5c4.1-105,84.7-128.8,247.7-74c128.5,43.2,284.5-47.3,342.7-109.6
							c45.1-48.2,82.8-86.6,116.4-48.8c53,59.7,152.5,56.3,230,6.5V2.2H0.8z"/>
					</g>
				</g>
				<rect id="rect217" x="0.8" y="2.2" class="st0" width="1920" height="574"/>
				<g id="g464">
					
						<linearGradient id="path369_1_" gradientUnits="userSpaceOnUse" x1="0" y1="305.4709" x2="1920.6" y2="305.4709" gradientTransform="matrix(1 0 0 -1 0 580)">
						<stop  offset="0" style="stop-color:#46044C"/>
						<stop  offset="1" style="stop-color:#2C0184"/>
					</linearGradient>
					<path id="path369" class="st1" d="M0,0v323.4c72.4,80.9,287.2-63.3,181.8,45.1l0,0c9.1,16.1,30.3-7.3,64,18.7
						c12,9.3,2,38.3,19.3,46.5c13.3,6.3,56.9,3.7,72.3,9.5c16.2,6,8,65,19.3,50.2c60.2-79.3,108.7-35.9,157.2-0.6
						c206.7-77.8,309.6-71.8,359-5c1.9,2.6,29.8,12.4,45.9,10.3c15.1-2,29.8,6.2,36,20.1l11.8,26.4c1.7,3.8,6.2,5.5,10,3.8
						c0.7-0.3,1.4-0.8,2-1.3c10.8-9.7,25.2-30.9,26.1-37.7c11.5-91.5,72.5-60.6,227-8.7c66.9,22.5,99.5-58.9,163.6-86
						c59.1-25,151.2,6.3,179.1-23.6c45.1-48.2,82.8-86.6,116.4-48.8c28.8,32.5,60.9-33.9,106.3-36.1c38-1.8,88.4,65.3,123.7,42.6V0
						H0z"/>
				</g>
			</g>
		</g>
	</g>
</g>
<g>
	<g>
		<g>
			
				<radialGradient id="SVGID_1_" cx="344.017" cy="195.0707" r="142.2946" gradientTransform="matrix(0.3541 -0.9352 0.9352 0.3541 87.9686 428.6639)" gradientUnits="userSpaceOnUse">
				<stop  offset="0.5851" style="stop-color:#2982A2"/>
				<stop  offset="0.5888" style="stop-color:#28809F"/>
				<stop  offset="0.6608" style="stop-color:#1C596F"/>
				<stop  offset="0.7325" style="stop-color:#123947"/>
				<stop  offset="0.8025" style="stop-color:#0A2028"/>
				<stop  offset="0.8704" style="stop-color:#050E12"/>
				<stop  offset="0.9352" style="stop-color:#010405"/>
				<stop  offset="0.9936" style="stop-color:#000000"/>
			</radialGradient>
			<path class="st2" d="M442.6,42.9c73.5,27.8,110.5,110,82.7,183.5c-27.8,73.5-110,110.5-183.5,82.7
				c-73.5-27.8-110.5-110-82.7-183.5C287,52.1,369.1,15.1,442.6,42.9z"/>
			<g>
				<g>
					
						<radialGradient id="SVGID_2_" cx="335.8734" cy="180.4686" r="103.7979" fx="318.0215" fy="178.1395" gradientTransform="matrix(0.3541 -0.9352 0.9352 0.3541 87.9686 428.6639)" gradientUnits="userSpaceOnUse">
						<stop  offset="0" style="stop-color:#FFFFFF"/>
						<stop  offset="0.6719" style="stop-color:#EDEDED"/>
						<stop  offset="1" style="stop-color:#E2E2E2"/>
					</radialGradient>
					<path class="st3" d="M458.9,115.2c32.9,37.5,29.1,94.6-8.4,127.4c-37.5,32.9-94.6,29.1-127.4-8.5
						c-32.9-37.5-29.1-94.6,8.4-127.4C369,73.9,426.1,77.6,458.9,115.2z"/>
					
						<radialGradient id="SVGID_3_" cx="344.8446" cy="193.4243" r="90.3034" gradientTransform="matrix(0.3541 -0.9352 0.9352 0.3541 87.9686 428.6639)" gradientUnits="userSpaceOnUse">
						<stop  offset="0" style="stop-color:#FFFFFF"/>
						<stop  offset="0.6719" style="stop-color:#EDEDED"/>
						<stop  offset="1" style="stop-color:#E2E2E2"/>
					</radialGradient>
					<path class="st4" d="M301.1,166c3.6-29,22.9-55,52.2-65.7c41.7-15.3,88,6.2,103.2,47.9c15.3,41.7-6.2,88-47.9,103.2
						c-41.4,15.1-87.2-5.8-102.8-46.8c0.1,0.4,0.2,0.7,0.4,1.1c17.1,46.8,69,70.9,115.8,53.8c46.8-17.1,70.9-69,53.8-115.8
						c-17.1-46.8-69-70.9-115.8-53.8C326.2,102.2,304.3,132.5,301.1,166z"/>
					
						<radialGradient id="SVGID_4_" cx="335.9716" cy="231.0372" r="67.0072" gradientTransform="matrix(0.4276 -0.904 0.904 0.4276 22.351 383.5503)" gradientUnits="userSpaceOnUse">
						<stop  offset="0" style="stop-color:#FFFFFF"/>
						<stop  offset="0.6719" style="stop-color:#EDEDED"/>
						<stop  offset="1" style="stop-color:#E2E2E2"/>
					</radialGradient>
					<path class="st5" d="M356.1,111.1c34-9.4,69.9,13.1,80.2,50.4c10.4,37.3-8.8,75.1-42.8,84.6c-34,9.4-69.9-13.1-80.2-50.4
						C303,158.4,322.1,120.6,356.1,111.1z"/>
					
						<radialGradient id="SVGID_5_" cx="317.1096" cy="153.0107" r="42.8218" gradientTransform="matrix(0.3541 -0.9352 0.9352 0.3541 87.9686 428.6639)" gradientUnits="userSpaceOnUse">
						<stop  offset="0" style="stop-color:#FFFFFF"/>
						<stop  offset="0.6719" style="stop-color:#EDEDED"/>
						<stop  offset="1" style="stop-color:#E2E2E2"/>
					</radialGradient>
					<path class="st6" d="M326.4,140c18.2-6.7,40.6,8.7,49.9,34.2c9.4,25.6,2.2,51.7-16,58.4c-18.2,6.7-40.6-8.7-49.9-34.2
						C301,172.8,308.2,146.6,326.4,140z"/>
				</g>
				<g>
					<path class="st7" d="M411.9,244.7c-1.4-0.9-0.5-3.4,2.2-4.7c2.8-1.3,5.3,0.4,5.3,2C419.3,243.5,415.7,247.1,411.9,244.7z"/>
					<path class="st7" d="M348.8,153.3c-2.6-0.6-5-3.6-4.9-6.8c0.2-3.2,2.6-5.4,6.5-4.4c3.9,1,6.3,5.5,4.4,7.6
						C352.8,151.8,351.8,154,348.8,153.3z"/>
					<path class="st7" d="M336.7,207.7c-2.8-2.1,2-8.2,6.3-6.6C347.3,202.6,339.8,210,336.7,207.7z"/>
					<path class="st7" d="M452.9,217.2c2-0.8,5.1-4.2,1.1-6.7C450,208.1,446.6,219.7,452.9,217.2z"/>
					<path class="st7" d="M371.4,106.2c1.1-1.7,2.2-4.3-1.6-6.2c-3.8-1.9-5.7,3.8-4.1,5.8C367.3,107.8,370.5,107.7,371.4,106.2z"/>
					<path class="st7" d="M370.9,225.2c2.3-1.4,4.9-7.1,0-10.1c-4.9-3-9.8,2.7-9.9,6.3C360.9,225.1,363.9,229.4,370.9,225.2z"/>
					<path class="st7" d="M338.4,184.4c2.7-1.4,6.8-9.2,4.1-12.4c-2.8-3.3-9.5,0-12.5,6.5C327,184.9,328.7,189.5,338.4,184.4z"/>
					<path class="st7" d="M332.1,155.6c2.9-2,4.7-10.3,0.5-12.7c-4.2-2.4-8.1,4.9-8.2,9.8C324.3,157.5,326.8,159.2,332.1,155.6z"/>
					<path class="st7" d="M313.9,170.2c2.5-2.4,3.7-6.9,1.7-7.9c-2-1-4.3,1.3-5.2,4.5C309.5,169.9,310.9,173.2,313.9,170.2z"/>
					<path class="st7" d="M317.8,215.2c-2-1.2,0.6-2.8,1.8-2.5C320.7,213,320.6,216.9,317.8,215.2z"/>
					<path class="st7" d="M348,220.6c-2.1,0-0.5-2.8,0.9-2.4C350.4,218.6,349.6,220.6,348,220.6z"/>
					<path class="st7" d="M389,244.9c2-0.3,2.3-3.5-0.2-4.2C386.3,240.1,386.9,245.2,389,244.9z"/>
					<path class="st7" d="M406.2,256.4c0.8-0.1,2.4-2,0.1-3C404,252.4,404.1,256.7,406.2,256.4z"/>
					<path class="st7" d="M472.1,202.1c1.3-1.2,0.5-3.2-1.4-3.3C468.8,198.7,469.4,204.6,472.1,202.1z"/>
					<path class="st7" d="M468.8,208.8c-0.7-1.4-2.1,1.1-1.7,2.5C467.5,212.6,469.7,210.6,468.8,208.8z"/>
					<path class="st7" d="M462.2,215.4c1.2-0.9,1.1-2,0.1-2.5C461.3,212.4,460,217,462.2,215.4z"/>
					<path class="st7" d="M444.5,195.6c-0.8,0,0-3.1,0.9-2.5C446.4,193.8,445.9,195.6,444.5,195.6z"/>
					<path class="st7" d="M377.5,136.6c-3.2-1.2-1.9-4,1.1-3C381.6,134.7,380.7,137.8,377.5,136.6z"/>
					<path class="st7" d="M404.7,113c-2.1-0.6-0.5-5.4,1.8-4.7C408.7,108.9,406.8,113.6,404.7,113z"/>
					<path class="st7" d="M341.2,111.8c-1.9-0.5-1.1-2.6,0.8-2.2C343.9,110,342.1,112.1,341.2,111.8z"/>
					<path class="st7" d="M335,126.3c-1.8,1.2-1.9-1.7-0.5-2.4C335.8,123.2,336.9,125,335,126.3z"/>
					<path class="st7" d="M323.1,137.7c-0.9,0.9-2.4-1.3-0.9-2.3C323.8,134.5,324.1,136.9,323.1,137.7z"/>
					<path class="st7" d="M314.4,143c-1.8,0.6-0.4-1.7,0.3-2.4C315.5,139.9,317.2,142,314.4,143z"/>
					<path class="st7" d="M325.4,126.2c-2.6,0.2,0.1-1.9,0.6-1.5C326.4,125.2,325.4,126.2,325.4,126.2z"/>
					<path class="st7" d="M318.8,144.5c-1.1,0.7-0.5-1.1,0.3-0.9C319.9,143.8,318.8,144.5,318.8,144.5z"/>
					<path class="st7" d="M313.6,160.8c-0.6,0.4-1-1.1-0.1-1.5C314.4,159,314.6,160.2,313.6,160.8z"/>
					<path class="st7" d="M319.1,185c-1.1,0.7-1-2.5,0.4-3.2C320.9,181.2,320.8,184,319.1,185z"/>
					<path class="st7" d="M377.4,215.6c-6.2-4-2.2-14.7,9.7-20.5c11.9-5.8,23.1,1.8,22.8,8.6C409.7,210.6,393.7,226,377.4,215.6z"/>
					<path class="st7" d="M363.9,188.7c-2.4-1.5-0.8-5.6,3.7-7.8c4.5-2.2,8.7,0.7,8.6,3.3C376.1,186.8,370.1,192.7,363.9,188.7z"/>
				</g>
			</g>
		</g>
	</g>
</g>
<g>
</g>
</svg>
