<svg id="Layer_1" data-name="Layer 1" xmlns="http://www.w3.org/2000/svg" xmlns:xlink="http://www.w3.org/1999/xlink" viewBox="0 0 1921.4 577"><defs><style>.cls-1{fill:#fff;}.cls-2{fill:url(#linear-gradient);}.cls-3{fill:url(#radial-gradient);}.cls-4,.cls-7{opacity:0.4;}.cls-4,.cls-5,.cls-6,.cls-7{isolation:isolate;}.cls-4{fill:url(#radial-gradient-2);}.cls-5{opacity:0.3;fill:url(#radial-gradient-3);}.cls-6{opacity:0.5;fill:url(#radial-gradient-4);}.cls-7{fill:#d3d3d3;}</style><linearGradient id="linear-gradient" y1="774.53" x2="1920.8" y2="774.53" gradientTransform="translate(0 -500)" gradientUnits="userSpaceOnUse"><stop offset="0" stop-color="#46044c"/><stop offset="1" stop-color="#2c0184"/></linearGradient><radialGradient id="radial-gradient" cx="101.78" cy="560.59" fx="83.92887991726627" r="103.8" gradientTransform="matrix(0.35, -0.94, -0.94, -0.35, 863.9, 472.15)" gradientUnits="userSpaceOnUse"><stop offset="0" stop-color="#fff"/><stop offset="0.67" stop-color="#ededed"/><stop offset="1" stop-color="#e2e2e2"/></radialGradient><radialGradient id="radial-gradient-2" cx="110.72" cy="547.62" fx="110.72271699130579" r="90.29" xlink:href="#radial-gradient"/><radialGradient id="radial-gradient-3" cx="109.64" cy="491.6" fx="109.64438588892699" r="67.02" gradientTransform="matrix(0.43, -0.9, -0.9, -0.43, 772.34, 487.93)" xlink:href="#radial-gradient"/><radialGradient id="radial-gradient-4" cx="83" cy="588.05" fx="83.00113914827125" r="42.81" xlink:href="#radial-gradient"/></defs><title>Asset 2-01</title><g id="Layer_1-2" data-name="Layer 1-2"><g id="Layer_2-2" data-name="Layer 2-2"><g id="Layer_1-2-2" data-name="Layer 1-2-2"><g id="SVGID"><g id="g473"><path id="path471" class="cls-1" d="M.8,2.2V325.6c72.4,80.9,403.2-55.9,297.7,52.5-81.8,84-12.7,206.7,216.1,116.9,211.8-83.2,402.8,14.6,443.5,82h26.5c4.1-105,84.7-128.8,247.7-74,128.5,43.2,284.5-47.3,342.7-109.6,45.1-48.2,82.8-86.6,116.4-48.8,53,59.7,152.5,56.3,230,6.5V2.2Z"/></g></g><rect id="rect217" class="cls-1" x="0.8" y="2.2" width="1920" height="574"/><g id="g464"><path id="path369" class="cls-2" d="M0,0V323.4c72.4,80.9,287.2-63.3,181.8,45.1h0c9.1,16.1,30.3-7.3,64,18.7,12,9.3,2,38.3,19.3,46.5,13.3,6.3,56.9,3.7,72.3,9.5,16.2,6,8,65,19.3,50.2,60.2-79.3,108.7-35.9,157.2-.6,206.7-77.8,309.6-71.8,359-5,1.9,2.6,29.8,12.4,45.9,10.3a34.52,34.52,0,0,1,36,20.1l11.8,26.4a7.58,7.58,0,0,0,10,3.8,8.58,8.58,0,0,0,2-1.3c10.8-9.7,25.2-30.9,26.1-37.7,11.5-91.5,72.5-60.6,227-8.7,66.9,22.5,99.5-58.9,163.6-86,59.1-25,151.2,6.3,179.1-23.6,45.1-48.2,82.8-86.6,116.4-48.8,28.8,32.5,60.9-33.9,106.3-36.1,38-1.8,88.4,65.3,123.7,42.6V0Z"/></g></g></g></g><path class="cls-3" d="M458.9,115.2a90.25,90.25,0,1,1-127.4-8.5A90.24,90.24,0,0,1,458.9,115.2Z"/><path class="cls-4" d="M301.1,166a80.44,80.44,0,1,1,4.7,38.6,4.87,4.87,0,0,0,.4,1.1,90.19,90.19,0,1,0-5.1-39.7Z"/><path class="cls-5" d="M356.1,111.1c34-9.4,69.9,13.1,80.2,50.4s-8.8,75.1-42.8,84.6-69.9-13.1-80.2-50.4S322.1,120.6,356.1,111.1Z"/><path class="cls-6" d="M326.4,140c18.2-6.7,40.6,8.7,49.9,34.2s2.2,51.7-16,58.4-40.6-8.7-49.9-34.2S308.2,146.6,326.4,140Z"/><path class="cls-7" d="M411.9,244.7c-1.4-.9-.5-3.4,2.2-4.7s5.3.4,5.3,2S415.7,247.1,411.9,244.7Z"/><path class="cls-7" d="M348.8,153.3a7,7,0,0,1-4.9-6.8c.2-3.2,2.6-5.4,6.5-4.4s6.3,5.5,4.4,7.6S351.8,154,348.8,153.3Z"/><path class="cls-7" d="M336.7,207.7c-2.8-2.1,2-8.2,6.3-6.6S339.8,210,336.7,207.7Z"/><path class="cls-7" d="M452.9,217.2c2-.8,5.1-4.2,1.1-6.7S446.6,219.7,452.9,217.2Z"/><path class="cls-7" d="M371.4,106.2c1.1-1.7,2.2-4.3-1.6-6.2s-5.7,3.8-4.1,5.8S370.5,107.7,371.4,106.2Z"/><path class="cls-7" d="M370.9,225.2c2.3-1.4,4.9-7.1,0-10.1s-9.8,2.7-9.9,6.3S363.9,229.4,370.9,225.2Z"/><path class="cls-7" d="M338.4,184.4c2.7-1.4,6.8-9.2,4.1-12.4s-9.5,0-12.5,6.5S328.7,189.5,338.4,184.4Z"/><path class="cls-7" d="M332.1,155.6c2.9-2,4.7-10.3.5-12.7s-8.1,4.9-8.2,9.8S326.8,159.2,332.1,155.6Z"/><path class="cls-7" d="M313.9,170.2c2.5-2.4,3.7-6.9,1.7-7.9s-4.3,1.3-5.2,4.5S310.9,173.2,313.9,170.2Z"/><path class="cls-7" d="M317.8,215.2c-2-1.2.6-2.8,1.8-2.5S320.6,216.9,317.8,215.2Z"/><path class="cls-7" d="M348,220.6c-2.1,0-.5-2.8.9-2.4S349.6,220.6,348,220.6Z"/><path class="cls-7" d="M389,244.9c2-.3,2.3-3.5-.2-4.2S386.9,245.2,389,244.9Z"/><path class="cls-7" d="M406.2,256.4a1.54,1.54,0,0,0,.1-3C404,252.4,404.1,256.7,406.2,256.4Z"/><path class="cls-7" d="M472.1,202.1a1.9,1.9,0,0,0-1.4-3.3C468.8,198.7,469.4,204.6,472.1,202.1Z"/><path class="cls-7" d="M468.8,208.8c-.7-1.4-2.1,1.1-1.7,2.5S469.7,210.6,468.8,208.8Z"/><path class="cls-7" d="M462.2,215.4c1.2-.9,1.1-2,.1-2.5S460,217,462.2,215.4Z"/><path class="cls-7" d="M444.5,195.6c-.8,0,0-3.1.9-2.5A1.41,1.41,0,0,1,444.5,195.6Z"/><path class="cls-7" d="M377.5,136.6c-3.2-1.2-1.9-4,1.1-3S380.7,137.8,377.5,136.6Z"/><path class="cls-7" d="M404.7,113c-2.1-.6-.5-5.4,1.8-4.7S406.8,113.6,404.7,113Z"/><path class="cls-7" d="M341.2,111.8c-1.9-.5-1.1-2.6.8-2.2S342.1,112.1,341.2,111.8Z"/><path class="cls-7" d="M335,126.3c-1.8,1.2-1.9-1.7-.5-2.4S336.9,125,335,126.3Z"/><path class="cls-7" d="M323.1,137.7c-.9.9-2.4-1.3-.9-2.3S324.1,136.9,323.1,137.7Z"/><path class="cls-7" d="M314.4,143c-1.8.6-.4-1.7.3-2.4S317.2,142,314.4,143Z"/><path class="cls-7" d="M325.4,126.2c-2.6.2.1-1.9.6-1.5S325.4,126.2,325.4,126.2Z"/><path class="cls-7" d="M318.8,144.5c-1.1.7-.5-1.1.3-.9S318.8,144.5,318.8,144.5Z"/><path class="cls-7" d="M313.6,160.8c-.6.4-1-1.1-.1-1.5S314.6,160.2,313.6,160.8Z"/><path class="cls-7" d="M319.1,185c-1.1.7-1-2.5.4-3.2S320.8,184,319.1,185Z"/><path class="cls-7" d="M377.4,215.6c-6.2-4-2.2-14.7,9.7-20.5s23.1,1.8,22.8,8.6S393.7,226,377.4,215.6Z"/><path class="cls-7" d="M363.9,188.7c-2.4-1.5-.8-5.6,3.7-7.8s8.7.7,8.6,3.3S370.1,192.7,363.9,188.7Z"/></svg>