<svg xmlns="http://www.w3.org/2000/svg" xmlns:xlink="http://www.w3.org/1999/xlink" viewBox="0 0 1921.44 577.03"><defs><style>.cls-1{isolation:isolate;}.cls-2{fill:#fff;}.cls-3{fill:url(#linear-gradient);}.cls-4,.cls-8{opacity:0.5;}.cls-4,.cls-7,.cls-8{mix-blend-mode:screen;}.cls-4{fill:url(#radial-gradient);}.cls-5{fill:url(#radial-gradient-2);}.cls-6,.cls-9{opacity:0.4;mix-blend-mode:multiply;}.cls-6{fill:url(#radial-gradient-3);}.cls-7{opacity:0.3;fill:url(#radial-gradient-4);}.cls-8{fill:url(#radial-gradient-5);}.cls-9{fill:#d3d3d3;}</style><linearGradient id="linear-gradient" y1="305.47" x2="1920.6" y2="305.47" gradientTransform="matrix(1, 0, 0, -1, 0, 580)" gradientUnits="userSpaceOnUse"><stop offset="0" stop-color="#46044c"/><stop offset="1" stop-color="#2c0184"/></linearGradient><radialGradient id="radial-gradient" cx="344.02" cy="195.07" r="142.29" gradientTransform="translate(87.97 428.66) rotate(-69.26)" gradientUnits="userSpaceOnUse"><stop offset="0.59" stop-color="#2982a2"/><stop offset="0.59" stop-color="#28809f"/><stop offset="0.66" stop-color="#1c596f"/><stop offset="0.73" stop-color="#123947"/><stop offset="0.8" stop-color="#0a2028"/><stop offset="0.87" stop-color="#050e12"/><stop offset="0.94" stop-color="#010405"/><stop offset="0.99"/></radialGradient><radialGradient id="radial-gradient-2" cx="335.87" cy="180.47" fx="318.0215704455904" r="103.8" gradientTransform="translate(87.97 428.66) rotate(-69.26)" gradientUnits="userSpaceOnUse"><stop offset="0" stop-color="#fff"/><stop offset="0.67" stop-color="#ededed"/><stop offset="1" stop-color="#e2e2e2"/></radialGradient><radialGradient id="radial-gradient-3" cx="344.84" cy="193.42" fx="344.8446416554143" r="90.3" xlink:href="#radial-gradient-2"/><radialGradient id="radial-gradient-4" cx="335.97" cy="231.04" fx="335.9715913819491" r="67.01" gradientTransform="translate(22.35 383.55) rotate(-64.69)" xlink:href="#radial-gradient-2"/><radialGradient id="radial-gradient-5" cx="317.11" cy="153.01" fx="317.1095619361449" r="42.82" xlink:href="#radial-gradient-2"/></defs><title>Asset 2-01</title><g class="cls-1"><g id="Layer_1" data-name="Layer 1"><g id="Layer_1-2" data-name="Layer 1-2"><g id="Layer_2-2" data-name="Layer 2-2"><g id="Layer_1-2-2" data-name="Layer 1-2-2"><g id="SVGID"><g id="g473"><path id="path471" class="cls-2" d="M.84,2.23v323.4c72.4,80.9,403.2-55.9,297.7,52.5-81.8,84-12.7,206.7,216.1,116.9,211.8-83.2,402.8,14.6,443.5,82h26.5c4.1-105,84.7-128.8,247.7-74,128.5,43.2,284.5-47.3,342.7-109.6,45.1-48.2,82.8-86.6,116.4-48.8,53,59.7,152.5,56.3,230,6.5V2.23Z"/></g></g><rect id="rect217" class="cls-2" x="0.84" y="2.23" width="1920" height="574"/><g id="g464"><path id="path369" class="cls-3" d="M0,0V323.4c72.4,80.9,287.24-63.29,181.75,45.1h0c9.05,16.07,30.3-7.27,64,18.66,12,9.26,2,38.31,19.26,46.52,13.25,6.31,56.87,3.72,72.3,9.48,16.22,6,8,65,19.25,50.19,60.24-79.25,108.7-35.87,157.18-.61,206.66-77.82,309.56-71.79,359-5,1.93,2.61,29.79,12.44,45.93,10.31a34.48,34.48,0,0,1,36,20.11l11.81,26.43a7.54,7.54,0,0,0,11.93,2.53c10.82-9.71,25.24-30.88,26.09-37.7,11.46-91.52,72.5-60.62,227-8.67,66.86,22.48,99.48-58.91,163.58-86,59.09-25,151.2,6.3,179.12-23.58,45.1-48.2,82.8-86.6,116.4-48.8,28.85,32.5,60.89-33.86,106.26-36.07,38-1.84,88.43,65.26,123.74,42.57V0Z"/></g></g></g></g><path class="cls-4" d="M442.6,42.93a142.29,142.29,0,1,1-183.46,82.69A142.3,142.3,0,0,1,442.6,42.93Z"/><path class="cls-5" d="M458.9,115.16a90.3,90.3,0,1,1-127.42-8.45A90.3,90.3,0,0,1,458.9,115.16Z"/><path class="cls-6" d="M301.06,166a80.52,80.52,0,1,1,4.72,38.57c.13.37.25.73.38,1.09a90.26,90.26,0,1,0-5.1-39.66Z"/><path class="cls-7" d="M356.11,111.15c34-9.44,69.89,13.13,80.24,50.4s-8.78,75.13-42.75,84.57S323.71,233,313.36,195.71,322.15,120.58,356.11,111.15Z"/><path class="cls-8" d="M326.4,140c18.22-6.67,40.57,8.66,49.93,34.25s2.19,51.72-16,58.39-40.58-8.67-49.94-34.25S308.18,146.62,326.4,140Z"/><path class="cls-9" d="M411.89,244.69c-1.44-.91-.51-3.4,2.24-4.73s5.33.41,5.27,2S415.65,247.1,411.89,244.69Z"/><path class="cls-9" d="M348.77,153.3a6.91,6.91,0,0,1-4.86-6.82c.18-3.23,2.57-5.41,6.5-4.43s6.3,5.49,4.36,7.6S351.85,154,348.77,153.3Z"/><path class="cls-9" d="M336.74,207.68c-2.81-2.07,2-8.19,6.29-6.64S339.85,210,336.74,207.68Z"/><path class="cls-9" d="M453,217.24c2-.77,5.06-4.19,1.06-6.66S446.63,219.68,453,217.24Z"/><path class="cls-9" d="M371.4,106.19c1.05-1.73,2.23-4.28-1.62-6.18s-5.73,3.8-4.11,5.8S370.46,107.73,371.4,106.19Z"/><path class="cls-9" d="M370.89,225.22c2.27-1.36,4.92-7.08,0-10.07s-9.8,2.68-9.9,6.32S363.87,229.43,370.89,225.22Z"/><path class="cls-9" d="M338.44,184.39c2.74-1.44,6.83-9.19,4.07-12.44S333,172,330,178.43,328.66,189.53,338.44,184.39Z"/><path class="cls-9" d="M332.09,155.57c2.91-2,4.67-10.31.47-12.7s-8.13,4.94-8.19,9.77S326.76,159.17,332.09,155.57Z"/><path class="cls-9" d="M313.92,170.16c2.49-2.45,3.74-6.94,1.72-7.92s-4.34,1.34-5.22,4.52S310.87,173.15,313.92,170.16Z"/><path class="cls-9" d="M317.78,215.23c-2-1.2.59-2.81,1.76-2.53S320.64,217,317.78,215.23Z"/><path class="cls-9" d="M348,220.63c-2.1,0-.54-2.79.91-2.4S349.6,220.63,348,220.63Z"/><path class="cls-9" d="M389,244.89c2-.34,2.29-3.51-.18-4.17S386.92,245.24,389,244.89Z"/><path class="cls-9" d="M406.18,256.36c.84-.14,2.41-2,.14-3S404.12,256.7,406.18,256.36Z"/><path class="cls-9" d="M472.09,202.13c1.33-1.2.48-3.17-1.4-3.28S469.37,204.57,472.09,202.13Z"/><path class="cls-9" d="M468.84,208.81c-.7-1.41-2.14,1.11-1.73,2.46S469.73,210.58,468.84,208.81Z"/><path class="cls-9" d="M462.16,215.38c1.21-.89,1.11-2,.1-2.48S460,217,462.16,215.38Z"/><path class="cls-9" d="M444.48,195.63c-.79,0,0-3.14.94-2.47A1.41,1.41,0,0,1,444.48,195.63Z"/><path class="cls-9" d="M377.48,136.61c-3.2-1.22-1.92-4,1.12-3S380.68,137.84,377.48,136.61Z"/><path class="cls-9" d="M404.65,113c-2.15-.62-.51-5.39,1.79-4.71S406.8,113.59,404.65,113Z"/><path class="cls-9" d="M341.19,111.84c-1.9-.46-1.07-2.56.83-2.2S342.12,112.06,341.19,111.84Z"/><path class="cls-9" d="M335,126.27c-1.79,1.2-1.88-1.67-.54-2.36S336.94,125,335,126.27Z"/><path class="cls-9" d="M323.13,137.7c-.92.86-2.44-1.27-.91-2.25S324.05,136.85,323.13,137.7Z"/><path class="cls-9" d="M314.41,143c-1.76.62-.43-1.72.31-2.4S317.18,142,314.41,143Z"/><path class="cls-9" d="M325.4,126.23c-2.56.22.07-1.9.55-1.47S325.4,126.23,325.4,126.23Z"/><path class="cls-9" d="M318.81,144.46c-1.12.65-.51-1.13.31-.89S318.81,144.46,318.81,144.46Z"/><path class="cls-9" d="M313.56,160.85c-.55.36-1-1.13-.1-1.47S314.56,160.2,313.56,160.85Z"/><path class="cls-9" d="M319.07,185c-1.13.66-1-2.55.41-3.19S320.81,184,319.07,185Z"/><path class="cls-9" d="M377.4,215.62c-6.23-4-2.2-14.74,9.72-20.51s23.07,1.78,22.81,8.64S393.71,226,377.4,215.62Z"/><path class="cls-9" d="M364,188.73c-2.36-1.5-.83-5.57,3.67-7.75s8.72.68,8.62,3.27S370.11,192.67,364,188.73Z"/></g></g></svg>